Exact Audio Copy V0.99 prebeta 3 from 28. July 2007

Отчёт EAC об извлечении, выполненном 24. декабря 2007, 18:58

Aborym / With No Human Intervention

Дисковод: ASUS    DRW-1608P   Adapter: 2  ID: 0

Режим чтения                 : Достоверность
Использование точного потока : Да
Отключение кэша аудио        : Да
Использование указателей C2  : Нет

Коррекция смещения при чтении                     : 48
Способность читать области Lead-in и Lead-out     : Нет
Заполнение пропущенных сэмплов тишиной            : Да
Удаление блоков с тишиной в начале и конце        : Нет
При вычислениях CRC использовались нулевые сэмплы : Да
Интерфейс                                         : Встроенный Win32-интерфейс для Win NT/2000

Выходной формат          : Пользовательский кодировщик
Выбранный битрейт        : 768 kBit/s
Качество                 : Высокий
Добавление ID3-тэга      : Нет
Утилита сжатия           : C:\Program Files\Exact Audio Copy\FLAC\FLAC.EXE
Дополнительные параметры : -6 -V -T "ARTIST=%a" -T "TITLE=%t" -T "ALBUM=%g" -T "DATE=%y" -T "TRACKNUMBER=%n" -T "GENRE=%m" -T "COMMENT=%e" %s -o %d


TOC извлечённого CD

     Трек |   Старт  | Длительность | Начальный сектор | Конечный сектор 
    ---------------------------------------------------------------------
       1  |  0:00.00 |    0:30.06   |           0      |       2255      
       2  |  0:30.06 |    6:18.70   |        2256      |      30675      
       3  |  6:49.01 |    3:24.65   |       30676      |      46040      
       4  | 10:13.66 |    4:56.40   |       46041      |      68280      
       5  | 15:10.31 |    4:03.17   |       68281      |      86522      
       6  | 19:13.48 |    5:25.01   |       86523      |     110898      
       7  | 24:38.49 |    6:10.61   |      110899      |     138709      
       8  | 30:49.35 |    9:58.21   |      138710      |     183580      
       9  | 40:47.56 |    5:11.10   |      183581      |     206915      
      10  | 45:58.66 |    4:30.70   |      206916      |     227235      
      11  | 50:29.61 |    4:34.70   |      227236      |     247855      
      12  | 55:04.56 |    6:03.15   |      247856      |     275095      
      13  | 61:07.71 |    2:48.08   |      275096      |     287703      
      14  | 63:56.04 |    0:58.30   |      287704      |     292083      
      15  | 67:26.34 |    5:10.32   |      303484      |     326765      


Характеристики диапазона извлечения и сообщения об ошибках

Выбранный диапазон

     Имя файла C:\Music\Aborym\With No Human Intervention.wav

     Пиковый уровень 100.0 %
     Качество диапазона 99.9 %
     CRC копии 25262401
     Копирование... OK

Ошибок не произошло

Конец отчёта
